<svg width="260" height="113" viewBox="0 0 260 113" fill="none" xmlns="http://www.w3.org/2000/svg">
<g filter="url(#filter0_d_105_2)">
<path d="M69.184 52.6C68.8 52.024 68.32 51.64 67.744 51.256C66.304 50.392 64.768 49.912 63.136 49.624C59.584 49.048 56.032 49.144 52.384 49.432C44.8 49.912 37.312 51.544 29.824 53.176C25.12 54.232 20.416 55.384 15.616 56.248C13.6 56.536 11.68 56.824 9.568 56.824C8.512 56.824 7.36 56.536 6.304 56.152C4.768 55.576 4 54.424 4.096 52.696C4.192 51.544 4.576 50.584 5.056 49.528C6.112 47.416 7.552 45.4 9.088 43.576C12.064 39.832 15.52 36.472 19.072 33.208C25.408 27.64 32.128 22.648 39.232 18.04C47.104 12.952 55.264 8.536 63.904 4.984C68.512 3.16 73.216 1.62399 78.208 0.759995C80.512 0.375994 82.912 0.0879974 85.216 0.0879974C87.52 0.0879974 89.824 0.279995 92.032 1.23999C92.8 1.528 93.472 1.912 94.048 2.58399C94.816 3.352 95.104 4.31199 94.912 5.464C94.72 6.808 94.048 8.056 93.376 9.304C91.744 11.8 89.92 14.2 87.712 16.216C86.944 16.984 86.08 17.656 85.408 18.52C85.216 18.808 84.832 18.904 84.544 18.712C84.256 18.52 84.256 18.136 84.448 17.848C84.736 17.272 85.12 16.888 85.6 16.408C88 13.816 89.824 10.936 91.264 7.672C91.648 6.712 91.936 5.752 91.936 4.696C91.84 3.352 91.168 2.68 89.92 2.488C87.328 2.10399 84.832 2.392 82.336 2.68C76.288 3.64 70.432 5.752 64.864 8.152C57.76 11.224 51.04 14.968 44.608 19.192C39.136 22.648 33.856 26.392 28.864 30.424C23.584 34.648 18.496 38.968 13.888 43.864C12.064 45.88 10.336 47.992 8.8 50.2C8.32 51.064 7.84 51.832 7.456 52.696C7.36 53.176 7.264 53.656 7.168 54.04C7.072 54.904 7.456 55.288 8.224 55.288C9.376 55.384 10.624 55.384 11.776 55.288C17.152 54.712 22.432 53.368 27.712 52.216C33.088 50.968 38.464 49.72 44.032 48.856C46.528 48.472 49.12 48.184 51.712 47.896C53.248 47.8 54.784 47.704 56.224 47.704C59.776 47.704 63.328 47.896 66.688 49.048C68.512 49.72 70.24 50.584 71.584 51.928C71.872 52.216 72.256 52.408 72.736 52.408C73.024 52.504 73.312 52.6 72.928 52.888C72.64 53.176 72.64 53.368 72.832 53.56C74.176 56.248 73.984 58.936 73.216 61.624C72.544 63.64 71.68 65.464 70.528 67.192C69.088 69.688 67.36 71.896 65.44 73.912C60.448 79.384 54.784 83.992 48.832 88.312C42.976 92.632 36.736 96.376 30.112 99.544C26.08 101.368 21.856 103 17.44 103.864C15.136 104.248 12.832 104.44 10.528 103.768C10.048 103.576 9.568 103.384 9.088 103.096C7.936 102.424 7.36 101.176 7.648 99.928C7.84 98.872 8.224 97.912 8.8 96.952C9.856 95.032 11.2 93.4 12.64 91.864C15.616 88.696 18.88 86.008 22.24 83.32C29.536 77.56 37.12 72.088 44.8 66.808C49.888 63.256 55.072 59.8 60.544 56.728C63.136 55.192 65.92 53.752 68.896 52.792C68.896 52.792 68.992 52.696 69.184 52.6ZM70.432 56.824C70.528 56.056 70.432 55.288 70.144 54.616C69.952 53.944 69.856 53.848 69.184 54.136C67.072 55 65.056 55.96 63.04 57.112C57.856 60.088 52.864 63.352 47.968 66.808C39.904 72.28 31.936 78.04 24.352 84.184C20.896 86.968 17.632 89.848 14.656 93.016C13.216 94.552 11.872 96.184 10.816 98.104C10.24 99.064 9.856 100.12 9.952 101.272C10.048 102.04 10.432 102.424 11.2 102.616C11.776 102.808 12.448 102.808 13.12 102.808C15.04 102.616 16.96 102.232 18.784 101.752C22.624 100.6 26.272 98.968 29.92 97.048C36.448 93.688 42.592 89.56 48.448 85.048C53.632 81.112 58.432 76.792 62.752 71.992C65.152 69.208 67.36 66.232 68.896 62.776C69.76 60.952 70.432 58.936 70.432 56.824ZM100.346 50.68C99.9625 50.68 99.7705 50.968 99.4825 51.064C96.6985 52.888 94.2025 54.808 91.7065 56.92C89.7865 58.648 87.8665 60.472 85.7545 62.104C85.1785 62.584 84.5065 62.968 83.9305 63.256C83.0665 63.736 82.2025 63.736 81.3385 63.544C80.3785 63.256 79.8025 62.584 79.7065 61.624C79.7065 60.952 79.8025 60.28 79.9945 59.608C80.7625 57.112 82.1065 55 83.5465 52.984C83.9305 52.408 84.3145 51.832 84.7945 51.352C85.4665 50.488 86.6185 50.392 87.4825 50.872C88.0585 51.064 88.1545 51.448 87.8665 51.928C87.5785 52.504 87.2905 52.984 86.9065 53.464C85.4665 55.576 84.2185 57.88 83.1625 60.184C82.8745 60.76 82.6825 61.432 82.6825 62.104C83.1625 62.008 83.6425 61.72 84.0265 61.432C85.8505 60.28 87.4825 58.84 89.2105 57.4C91.8025 55.192 94.4905 52.984 97.2745 51.064C98.2345 50.392 99.2905 49.72 100.346 49.24C101.498 48.664 102.65 48.952 103.802 49.336C104.282 49.432 104.378 49.816 104.282 50.392C104.09 50.872 103.898 51.352 103.707 51.928C102.746 54.232 101.69 56.632 100.73 59.032C100.634 59.32 100.442 59.704 100.442 60.088C100.826 60.088 101.018 59.896 101.306 59.704C103.514 58.264 105.626 56.824 107.931 55.384C108.987 54.712 110.042 54.04 111.195 53.464C111.483 53.272 111.867 52.984 112.155 53.368C112.25 53.656 111.962 53.944 111.675 54.136C111.386 54.424 111.098 54.616 110.714 54.808C108.026 56.632 105.338 58.36 102.554 60.184C101.786 60.76 101.018 61.24 100.154 61.816C99.6745 62.104 99.3865 62.488 99.1945 63.064C97.7545 66.52 96.4105 69.976 94.9705 73.432C93.4345 77.368 91.7065 81.208 89.6905 84.856C88.9225 86.296 88.1545 87.736 87.0985 89.08C86.8105 89.464 86.4265 89.848 86.0425 90.232C85.5625 90.712 84.9865 91 84.3145 91C82.8745 91 82.2025 90.52 81.7225 89.176C81.1465 87.832 80.8585 86.392 80.6665 84.856C80.3785 82.84 80.2825 80.824 80.5705 78.712C80.9545 75.736 82.5865 73.528 84.6985 71.512C86.8105 69.688 89.1145 68.056 91.4185 66.424C92.3785 65.752 93.3385 64.984 94.3945 64.408C94.9705 64.024 95.3545 63.544 95.5465 62.872C96.4105 60.472 97.3705 58.168 98.3305 55.864C98.9065 54.328 99.5785 52.792 100.25 51.256C100.25 51.064 100.442 50.872 100.346 50.68ZM94.2985 66.136C93.8185 66.04 93.6265 66.328 93.4345 66.52C92.3785 67.288 91.3225 68.056 90.2665 68.824C88.0585 70.456 85.9465 72.088 84.3145 74.2C83.3545 75.448 82.6825 76.888 82.3945 78.52C81.9145 81.784 82.3945 85.048 83.3545 88.312C83.4505 88.504 83.5465 88.792 83.6425 89.08C83.8345 89.464 83.9305 89.464 84.2185 89.176C84.6025 88.696 84.9865 88.216 85.1785 87.736C86.8105 84.856 88.2505 81.88 89.4985 78.808C90.5545 76.024 91.6105 73.336 92.6665 70.552C93.2425 69.112 93.7225 67.672 94.2985 66.136ZM108.62 58.84C109.484 58.456 110.156 57.784 110.828 57.208C113.996 54.52 117.068 51.928 120.524 49.72C121.196 49.336 121.868 48.856 122.636 48.472C123.404 48.088 124.172 47.992 125.036 48.28C125.996 48.568 126.38 49.144 126.188 50.104C126.092 50.584 125.9 51.064 125.708 51.544C125.132 52.984 124.364 54.52 123.788 55.96C123.308 56.92 122.924 57.976 122.636 59.032C122.444 59.512 122.444 60.088 122.444 60.664C122.444 61.432 122.636 61.528 123.404 61.336C124.652 61.048 125.804 60.472 126.956 59.8C129.932 58.072 132.812 56.056 135.596 54.04C135.98 53.752 136.46 53.464 136.94 53.368C137.132 53.272 137.324 53.272 137.516 53.464C137.612 53.656 137.516 53.848 137.42 54.04C137.132 54.232 136.94 54.424 136.652 54.616C133.772 56.824 130.796 58.936 127.724 60.76C126.956 61.336 126.188 61.72 125.324 62.104C124.364 62.488 123.404 62.68 122.348 62.584C120.524 62.488 119.468 61.432 119.564 59.608C119.66 58.744 119.852 57.88 120.044 57.112C120.716 55.096 121.676 53.176 122.636 51.352C122.828 50.968 123.02 50.584 123.116 50.008C122.732 50.008 122.54 50.2 122.252 50.296C119.468 51.832 116.876 53.56 114.38 55.576C111.692 57.784 109.1 60.088 106.604 62.488C106.124 63.064 105.548 63.256 104.876 63.064C104.108 62.968 103.82 62.584 103.916 61.816C104.108 61.144 104.3 60.568 104.588 59.992C106.028 56.728 107.948 53.656 110.156 50.776C110.924 49.816 111.98 49.528 113.132 50.104C113.708 50.392 113.804 50.776 113.516 51.256C113.42 51.544 113.228 51.736 113.036 52.024C111.692 54.232 110.252 56.344 108.812 58.552C108.812 58.648 108.716 58.744 108.62 58.84ZM138.187 52.504C138.571 51.64 139.051 50.68 139.723 49.912C140.875 48.664 142.123 47.8 143.851 47.608C144.523 47.512 145.195 47.608 145.867 47.8C147.019 48.184 147.691 48.952 147.691 50.2C147.691 50.968 147.595 51.64 147.307 52.408C146.443 54.616 145.099 56.44 143.563 58.168C143.371 58.36 142.987 58.552 143.083 58.84C143.179 59.224 143.659 59.128 143.947 59.128C145.387 59.224 146.923 59.032 148.363 58.552C151.435 57.496 154.507 56.248 157.483 54.616C157.963 54.328 158.443 54.04 158.923 53.656C159.307 53.464 159.595 53.272 159.979 53.176C160.171 53.08 160.459 52.888 160.651 53.176C160.747 53.464 160.555 53.656 160.459 53.848C160.075 54.328 159.595 54.616 159.115 54.904C156.715 56.248 154.315 57.4 151.723 58.36C150.091 59.032 148.459 59.608 146.731 59.896C145.483 60.184 144.139 60.184 142.891 59.896C142.219 59.8 141.739 59.896 141.259 60.376C140.491 61.048 139.627 61.624 138.667 62.104C137.323 62.68 135.883 62.776 134.443 62.488C132.715 62.008 131.659 60.76 131.659 58.936C131.563 56.344 132.811 54.328 134.731 52.696C135.595 51.928 136.555 51.928 137.611 52.312C137.803 52.408 137.899 52.6 138.187 52.504ZM140.299 55.096C140.203 55.96 140.491 56.728 140.971 57.496C141.259 57.88 141.451 57.88 141.739 57.592C143.467 55.864 144.811 54.04 145.579 51.736C145.771 51.352 145.867 50.872 145.867 50.392C145.867 48.952 145.099 48.472 143.851 49.144C141.643 50.392 140.491 52.504 140.299 55.096ZM137.995 53.464C137.803 53.56 137.707 53.56 137.611 53.656C136.171 55.096 135.211 56.824 134.923 58.744C134.827 59.32 134.827 59.8 134.923 60.28C135.211 61.144 135.499 61.336 136.363 61.144C137.611 60.76 138.667 60.088 139.627 59.416C140.107 59.032 140.107 58.936 139.723 58.552C139.147 57.976 138.667 57.4 138.379 56.632C137.899 55.672 137.803 54.616 137.995 53.464ZM157.445 58.84C158.309 58.456 158.981 57.784 159.653 57.208C162.821 54.52 165.893 51.928 169.349 49.72C170.021 49.336 170.693 48.856 171.461 48.472C172.229 48.088 172.997 47.992 173.861 48.28C174.821 48.568 175.205 49.144 175.013 50.104C174.917 50.584 174.725 51.064 174.533 51.544C173.957 52.984 173.189 54.52 172.613 55.96C172.133 56.92 171.749 57.976 171.461 59.032C171.269 59.512 171.269 60.088 171.269 60.664C171.269 61.432 171.461 61.528 172.229 61.336C173.477 61.048 174.629 60.472 175.781 59.8C178.757 58.072 181.637 56.056 184.421 54.04C184.805 53.752 185.285 53.464 185.765 53.368C185.957 53.272 186.149 53.272 186.341 53.464C186.437 53.656 186.341 53.848 186.245 54.04C185.957 54.232 185.765 54.424 185.477 54.616C182.597 56.824 179.621 58.936 176.549 60.76C175.781 61.336 175.013 61.72 174.149 62.104C173.189 62.488 172.229 62.68 171.173 62.584C169.349 62.488 168.293 61.432 168.389 59.608C168.485 58.744 168.677 57.88 168.869 57.112C169.541 55.096 170.501 53.176 171.461 51.352C171.653 50.968 171.845 50.584 171.941 50.008C171.557 50.008 171.365 50.2 171.077 50.296C168.293 51.832 165.701 53.56 163.205 55.576C160.517 57.784 157.925 60.088 155.429 62.488C154.949 63.064 154.373 63.256 153.701 63.064C152.933 62.968 152.645 62.584 152.741 61.816C152.933 61.144 153.125 60.568 153.413 59.992C154.853 56.728 156.773 53.656 158.981 50.776C159.749 49.816 160.805 49.528 161.957 50.104C162.533 50.392 162.629 50.776 162.341 51.256C162.245 51.544 162.053 51.736 161.861 52.024C160.517 54.232 159.077 56.344 157.637 58.552C157.637 58.648 157.541 58.744 157.445 58.84ZM193.924 56.056C193.54 55.96 193.348 56.248 193.06 56.344C190.564 57.592 188.26 59.128 185.764 60.568C184.708 61.144 183.652 61.72 182.5 62.2C181.636 62.488 180.676 62.68 179.716 62.488C178.372 62.104 177.7 61.144 177.988 59.8C178.18 59.032 178.468 58.36 178.948 57.688C180.58 55.096 182.884 53.08 185.572 51.544C187.3 50.584 189.124 49.816 191.236 49.624C192.484 49.432 193.636 49.624 194.692 50.104C195.94 50.68 196.42 51.64 196.036 52.888C195.94 53.56 195.94 53.56 196.612 53.848C197.38 54.136 197.572 54.52 197.284 55.384C196.9 56.248 196.516 57.112 196.132 57.976C195.844 58.648 195.652 59.224 195.556 59.896C195.556 60.184 195.556 60.376 195.652 60.664C195.748 61.24 196.036 61.336 196.612 61.24C197.38 61.048 198.244 60.76 199.012 60.376C201.22 59.128 203.332 57.784 205.348 56.344C206.5 55.48 207.556 54.616 208.708 53.848C208.996 53.656 209.284 53.368 209.668 53.272C209.86 53.176 210.148 53.176 210.34 53.368C210.436 53.656 210.34 53.848 210.148 54.04C210.052 54.136 209.86 54.328 209.764 54.424C206.596 56.92 203.428 59.224 199.972 61.24C199.396 61.528 198.82 61.816 198.244 62.008C197.188 62.488 196.132 62.488 195.076 62.104C193.828 61.72 193.252 60.856 193.156 59.608C193.156 58.648 193.444 57.784 193.732 56.824C193.828 56.632 194.02 56.344 193.924 56.056ZM194.404 53.272C194.404 51.448 193.636 50.872 192.1 51.256C191.428 51.448 190.756 51.736 190.18 52.024C188.164 52.984 186.34 54.232 184.804 55.768C183.46 57.016 182.212 58.264 181.252 59.8C181.06 60.088 180.964 60.472 180.868 60.76C180.772 61.048 180.964 61.144 181.156 61.144C181.444 61.048 181.636 61.048 181.828 60.952C182.98 60.568 184.036 59.992 184.996 59.512C187.972 57.976 190.756 56.152 193.636 54.52C194.212 54.232 194.5 53.752 194.404 53.272ZM208.17 58.072C208.554 57.592 209.034 57.112 209.418 56.632C210.666 55.096 211.914 53.656 213.258 52.216C214.602 50.776 216.138 49.528 217.674 48.28C218.442 47.704 219.306 47.608 220.266 47.992C220.938 48.28 221.226 48.76 221.034 49.528C220.842 50.392 220.554 51.256 220.17 52.024C219.402 53.656 218.538 55.288 217.674 56.824C217.482 57.112 217.194 57.4 217.194 57.88C217.674 57.688 218.058 57.4 218.346 57.208C219.594 56.44 220.746 55.768 221.994 55.288C222.57 55 223.146 54.904 223.722 55.096C224.49 55.384 224.874 55.864 224.682 56.632C224.586 57.112 224.394 57.592 224.298 58.072C224.106 58.744 223.914 59.32 223.818 60.088C223.722 61.144 224.106 61.624 225.258 61.432C226.314 61.24 227.274 60.76 228.138 60.28C231.402 58.552 234.57 56.632 237.45 54.328C237.93 53.944 238.314 53.656 238.89 53.464C238.986 53.368 239.178 53.368 239.274 53.56C239.37 53.656 239.37 53.752 239.274 53.944C239.082 54.232 238.794 54.52 238.506 54.808C237.45 55.672 236.394 56.44 235.338 57.208C232.938 58.84 230.538 60.376 227.946 61.624C227.274 61.912 226.602 62.2 225.93 62.296C225.066 62.488 224.202 62.392 223.338 62.104C222.474 61.72 221.898 60.952 221.898 59.992C221.898 59.416 221.994 58.84 222.09 58.36C222.282 57.784 222.474 57.112 222.57 56.536C222.378 56.344 222.186 56.536 221.994 56.632C220.362 57.304 218.922 58.264 217.482 59.32C217.098 59.512 216.714 59.8 216.234 60.088C216.042 60.184 215.754 60.28 215.562 60.28C214.314 60.28 213.642 59.608 213.93 58.36C214.218 57.112 214.698 55.864 215.274 54.712C215.754 53.56 216.426 52.504 217.002 51.448C217.194 51.16 217.386 50.872 217.386 50.488C216.906 50.68 216.618 50.968 216.33 51.256C214.122 52.984 212.298 55 210.57 57.208C209.61 58.456 208.65 59.8 207.69 61.048C207.402 61.336 207.21 61.624 207.018 61.912C206.442 62.584 205.77 62.488 205.002 62.296C204.33 62.008 204.042 61.528 203.946 60.856C203.85 60.088 204.042 59.32 204.33 58.552C205.098 56.152 206.154 53.944 207.498 51.832C207.978 51.064 208.554 50.296 209.13 49.528C209.802 48.664 211.242 48.664 212.01 49.432C212.298 49.72 212.298 50.008 212.106 50.296C211.722 50.968 211.434 51.544 211.05 52.12C210.09 53.944 209.13 55.768 208.17 57.592C208.17 57.688 208.074 57.88 208.074 58.072C208.074 58.072 208.074 58.072 208.17 58.072ZM244.476 49.048C245.34 48.952 246.204 49.144 246.972 49.432C247.356 49.624 247.74 49.816 248.028 50.008C248.7 50.584 248.988 51.256 248.796 52.12C248.316 54.232 246.876 55.384 244.956 56.056C243.996 56.44 242.94 56.44 241.884 56.248C240.732 55.96 239.676 55.672 238.62 55.288C237.948 55.096 237.948 55.096 237.468 55.672C236.892 56.44 236.412 57.4 236.028 58.36C235.836 58.936 235.836 59.608 235.932 60.184C236.124 61.144 236.7 61.624 237.66 61.72C238.524 61.72 239.292 61.528 240.06 61.24C241.596 60.76 243.036 60.088 244.476 59.416C247.836 57.88 251.1 56.152 254.076 53.944C254.46 53.752 254.844 53.56 255.228 53.368C255.42 53.272 255.612 53.08 255.804 53.368C255.996 53.56 255.804 53.752 255.708 53.944C255.612 54.328 255.324 54.52 255.036 54.712C253.692 55.768 252.348 56.728 250.812 57.496C247.836 59.32 244.572 60.856 241.308 62.2C240.636 62.488 239.868 62.68 239.196 62.776C237.948 63.064 236.796 62.872 235.644 62.392C233.82 61.72 232.86 59.896 233.148 57.976C233.34 57.016 233.628 56.152 234.204 55.384C236.22 52.312 238.908 50.2 242.46 49.24C242.844 49.144 243.324 49.048 243.708 49.048C243.996 48.952 244.284 49.048 244.476 49.048ZM242.076 55C243.708 54.808 245.052 54.136 246.012 52.6C246.108 52.312 246.204 52.024 246.3 51.64C246.396 50.68 246.012 50.392 245.052 50.488C242.748 50.968 240.924 52.216 239.196 53.752C238.908 54.04 238.908 54.232 239.388 54.424C240.156 54.712 241.02 54.904 242.076 55Z" fill="black"/>
</g>
<defs>
<filter id="filter0_d_105_2" x="0" y="0.0880127" width="259.996" height="112.352" filterUnits="userSpaceOnUse" color-interpolation-filters="sRGB">
<feFlood flood-opacity="0" result="BackgroundImageFix"/>
<feColorMatrix in="SourceAlpha" type="matrix" values="0 0 0 0 0 0 0 0 0 0 0 0 0 0 0 0 0 0 127 0" result="hardAlpha"/>
<feOffset dy="4"/>
<feGaussianBlur stdDeviation="2"/>
<feComposite in2="hardAlpha" operator="out"/>
<feColorMatrix type="matrix" values="0 0 0 0 0 0 0 0 0 0 0 0 0 0 0 0 0 0 0.25 0"/>
<feBlend mode="normal" in2="BackgroundImageFix" result="effect1_dropShadow_105_2"/>
<feBlend mode="normal" in="SourceGraphic" in2="effect1_dropShadow_105_2" result="shape"/>
</filter>
</defs>
</svg>
