<svg width="1928" height="1088" viewBox="0 0 1928 1088" fill="none" xmlns="http://www.w3.org/2000/svg">
<g clip-path="url(#clip0_108_3)" filter="url(#filter0_d_108_3)">
<rect width="1920" height="1080" transform="translate(4)" fill="white"/>
<g filter="url(#filter1_f_108_3)">
<path d="M1692.25 307.74C1674.53 322.872 1643.84 326.966 1622.29 343.901C1600.74 360.835 1588.33 390.61 1565.97 406.743C1543.61 422.875 1511.56 425.558 1482.03 417.385C1452.49 409.213 1425.72 390.156 1402.9 366.362C1379.82 342.374 1360.7 313.648 1351.59 281.038C1342.69 248.178 1343.8 211.435 1365.68 189.294C1387.31 166.96 1429.73 159.451 1462.91 156.186C1496.31 152.892 1520.23 153.87 1547.89 142.275C1575.55 130.679 1606.74 106.76 1639.55 102.414C1672.35 98.0694 1706.77 113.299 1720.36 139.537C1733.71 165.803 1726.21 202.856 1720.22 234.565C1714.22 266.273 1709.74 292.636 1692.25 307.74Z" fill="#FFCF55" fill-opacity="0.2"/>
</g>
<g filter="url(#filter2_f_108_3)">
<path d="M1788.03 198.456C1821.03 224.617 1838.96 277.623 1876.49 309.953C1914.02 342.283 1971.13 353.937 2007.52 387.982C2043.9 422.026 2059.81 477.93 2055.58 533.143C2051.36 588.356 2026.88 642.47 1992.62 691.21C1958.1 740.481 1913.81 784.377 1859.15 811.871C1803.97 839.082 1738.42 849.89 1691.55 818.778C1644.42 788.197 1616.35 715.571 1599.02 657.882C1581.57 599.786 1574.98 557.032 1544.8 512.013C1514.62 466.994 1461.35 419.992 1442.24 363.328C1423.13 306.663 1438.17 240.335 1479.97 207.113C1521.91 174.298 1590.23 174.713 1648.54 174.314C1706.86 173.914 1755.17 172.701 1788.03 198.456Z" fill="#ABC4FF" fill-opacity="0.2"/>
</g>
<g filter="url(#filter3_f_108_3)">
<path d="M546.789 189.31C568.009 176.023 601.276 176.515 626.853 161.918C652.43 147.32 670.319 117.633 696.63 104.016C722.941 90.3992 757.427 92.605 787.524 105.951C817.621 119.297 843.073 143.776 863.57 172.666C884.314 201.802 900.102 235.349 904.637 271.445C908.911 307.773 901.933 346.649 875.179 366.727C848.673 387.051 802.397 388.338 766.628 386.574C730.604 384.803 705.339 379.989 674.112 387.948C642.886 395.908 605.957 416.407 570.406 415.849C534.855 415.29 500.681 393.674 490.38 363.643C480.332 333.62 494.15 295.423 505.523 262.669C516.895 229.915 525.822 202.603 546.789 189.31Z" fill="#ABC4FF" fill-opacity="0.2"/>
</g>
<g filter="url(#filter4_f_108_3)">
<path d="M544.134 1323.73C492.337 1367.96 402.616 1379.93 339.617 1429.43C276.618 1478.93 240.34 1565.97 174.975 1613.13C109.61 1660.29 15.9211 1668.13 -70.4048 1644.24C-156.731 1620.35 -235.007 1564.65 -301.71 1495.09C-369.175 1424.97 -425.067 1341 -451.694 1245.67C-477.711 1149.62 -474.465 1042.21 -410.49 977.487C-347.278 912.2 -223.261 890.25 -126.295 880.704C-28.6434 871.077 41.2701 873.936 122.125 840.04C202.98 806.144 294.166 736.222 390.061 723.52C485.956 710.819 586.56 755.338 626.281 832.037C665.316 908.818 643.393 1017.13 625.875 1109.82C608.357 1202.51 595.246 1279.57 544.134 1323.73Z" fill="#ABC4FF" fill-opacity="0.2"/>
</g>
<g filter="url(#filter5_f_108_3)">
<path d="M1439.24 1188.74C1421.52 1203.87 1390.83 1207.97 1369.28 1224.9C1347.73 1241.84 1335.32 1271.61 1312.96 1287.74C1290.6 1303.87 1258.54 1306.56 1229.01 1298.39C1199.48 1290.21 1172.7 1271.16 1149.89 1247.36C1126.81 1223.37 1107.69 1194.65 1098.58 1162.04C1089.68 1129.18 1090.79 1092.43 1112.67 1070.29C1134.3 1047.96 1176.72 1040.45 1209.89 1037.19C1243.3 1033.89 1267.22 1034.87 1294.88 1023.27C1322.54 1011.68 1353.73 987.76 1386.54 983.414C1419.34 979.069 1453.76 994.299 1467.34 1020.54C1480.7 1046.8 1473.2 1083.86 1467.21 1115.56C1461.21 1147.27 1456.73 1173.64 1439.24 1188.74Z" fill="#FFCF55" fill-opacity="0.2"/>
</g>
<g filter="url(#filter6_f_108_3)">
<path d="M497.645 296.306C497.643 284.053 506.618 270.718 507.212 256.339C507.806 241.96 500.02 226.538 501.221 212.132C502.421 197.726 512.439 184.369 525.992 175.859C539.544 167.349 556.56 163.787 574.127 163.446C591.864 163.074 610.151 165.923 626.546 174.031C642.97 182.309 657.502 195.846 658.905 212.211C660.477 228.544 648.822 247.636 638.652 261.635C628.412 275.734 619.726 284.638 614.848 299.476C609.969 314.313 608.868 334.914 599.263 349.156C589.658 363.398 571.549 371.28 556.188 367.178C540.897 362.975 528.455 346.856 517.66 333.227C506.864 319.598 497.717 308.459 497.645 296.306Z" fill="#FFCF55" fill-opacity="0.2"/>
</g>
<g filter="url(#filter7_f_108_3)">
<path d="M45.6482 575.271C66.727 585.203 83.0777 611.498 107.375 624.182C131.673 636.866 163.917 635.938 187.816 649.689C211.715 663.44 227.338 691.554 232.028 721.834C236.719 752.114 230.357 784.359 218.047 814.942C205.669 845.843 187.343 875.082 161.362 896.792C135.067 918.415 101.115 932.509 71.935 921.661C42.6856 911.13 18.3984 875.543 1.78425 846.648C-14.9518 817.55 -23.8929 795.345 -45.8347 774.899C-67.7764 754.452 -102.406 735.85 -119.853 707.732C-137.301 679.614 -137.567 641.98 -119.235 618.806C-100.782 595.835 -63.9213 587.438 -32.553 579.865C-1.18477 572.292 24.6913 565.542 45.6482 575.271Z" fill="#FFCF55" fill-opacity="0.2"/>
</g>
</g>
<defs>
<filter id="filter0_d_108_3" x="0" y="0" width="1928" height="1088" filterUnits="userSpaceOnUse" color-interpolation-filters="sRGB">
<feFlood flood-opacity="0" result="BackgroundImageFix"/>
<feColorMatrix in="SourceAlpha" type="matrix" values="0 0 0 0 0 0 0 0 0 0 0 0 0 0 0 0 0 0 127 0" result="hardAlpha"/>
<feOffset dy="4"/>
<feGaussianBlur stdDeviation="2"/>
<feComposite in2="hardAlpha" operator="out"/>
<feColorMatrix type="matrix" values="0 0 0 0 0 0 0 0 0 0 0 0 0 0 0 0 0 0 0.25 0"/>
<feBlend mode="normal" in2="BackgroundImageFix" result="effect1_dropShadow_108_3"/>
<feBlend mode="normal" in="SourceGraphic" in2="effect1_dropShadow_108_3" result="shape"/>
</filter>
<filter id="filter1_f_108_3" x="1246.37" y="1.67892" width="581.438" height="520.191" filterUnits="userSpaceOnUse" color-interpolation-filters="sRGB">
<feFlood flood-opacity="0" result="BackgroundImageFix"/>
<feBlend mode="normal" in="SourceGraphic" in2="BackgroundImageFix" result="shape"/>
<feGaussianBlur stdDeviation="50" result="effect1_foregroundBlur_108_3"/>
</filter>
<filter id="filter2_f_108_3" x="1334.05" y="74.1726" width="822.2" height="863.517" filterUnits="userSpaceOnUse" color-interpolation-filters="sRGB">
<feFlood flood-opacity="0" result="BackgroundImageFix"/>
<feBlend mode="normal" in="SourceGraphic" in2="BackgroundImageFix" result="shape"/>
<feGaussianBlur stdDeviation="50" result="effect1_foregroundBlur_108_3"/>
</filter>
<filter id="filter3_f_108_3" x="386.906" y="-5.18684" width="618.896" height="521.047" filterUnits="userSpaceOnUse" color-interpolation-filters="sRGB">
<feFlood flood-opacity="0" result="BackgroundImageFix"/>
<feBlend mode="normal" in="SourceGraphic" in2="BackgroundImageFix" result="shape"/>
<feGaussianBlur stdDeviation="50" result="effect1_foregroundBlur_108_3"/>
</filter>
<filter id="filter4_f_108_3" x="-566.961" y="621.37" width="1315.02" height="1135.98" filterUnits="userSpaceOnUse" color-interpolation-filters="sRGB">
<feFlood flood-opacity="0" result="BackgroundImageFix"/>
<feBlend mode="normal" in="SourceGraphic" in2="BackgroundImageFix" result="shape"/>
<feGaussianBlur stdDeviation="50" result="effect1_foregroundBlur_108_3"/>
</filter>
<filter id="filter5_f_108_3" x="993.355" y="882.679" width="581.438" height="520.191" filterUnits="userSpaceOnUse" color-interpolation-filters="sRGB">
<feFlood flood-opacity="0" result="BackgroundImageFix"/>
<feBlend mode="normal" in="SourceGraphic" in2="BackgroundImageFix" result="shape"/>
<feGaussianBlur stdDeviation="50" result="effect1_foregroundBlur_108_3"/>
</filter>
<filter id="filter6_f_108_3" x="397.645" y="63.4142" width="361.403" height="404.847" filterUnits="userSpaceOnUse" color-interpolation-filters="sRGB">
<feFlood flood-opacity="0" result="BackgroundImageFix"/>
<feBlend mode="normal" in="SourceGraphic" in2="BackgroundImageFix" result="shape"/>
<feGaussianBlur stdDeviation="50" result="effect1_foregroundBlur_108_3"/>
</filter>
<filter id="filter7_f_108_3" x="-232.962" y="470.439" width="566.536" height="554.963" filterUnits="userSpaceOnUse" color-interpolation-filters="sRGB">
<feFlood flood-opacity="0" result="BackgroundImageFix"/>
<feBlend mode="normal" in="SourceGraphic" in2="BackgroundImageFix" result="shape"/>
<feGaussianBlur stdDeviation="50" result="effect1_foregroundBlur_108_3"/>
</filter>
<clipPath id="clip0_108_3">
<rect width="1920" height="1080" fill="white" transform="translate(4)"/>
</clipPath>
</defs>
</svg>
